<svg width="194" height="66" viewBox="0 0 194 66" fill="none" xmlns="http://www.w3.org/2000/svg">
<path d="M11.48 37.12C8.97333 36.88 6.46667 36.88 3.96 37.12C3.90667 37.04 3.88 36.88 3.88 36.64C3.88 36.4 3.90667 36.2267 3.96 36.12C4.52 36.12 4.93333 36.0667 5.2 35.96C5.46667 35.8267 5.62667 35.72 5.68 35.64C5.81333 35.32 5.88 34.4933 5.88 33.16V23.44C5.88 22.16 5.81333 21.3333 5.68 20.96C5.49333 20.6933 4.92 20.56 3.96 20.56C3.90667 20.4533 3.88 20.28 3.88 20.04C3.88 19.8 3.90667 19.64 3.96 19.56C4.57333 19.6133 5.21333 19.64 5.88 19.64H7.76L11.8 19.56C13.5067 19.56 14.9333 19.9733 16.08 20.8C17.28 21.6533 17.88 22.8133 17.88 24.28C17.88 25.7733 17.32 27.0267 16.2 28.04C15.1867 28.9733 13.9867 29.44 12.6 29.44C12.12 29.44 11.72 29.36 11.4 29.2C11.08 29.04 10.8667 28.92 10.76 28.84C10.68 28.7333 10.6133 28.56 10.56 28.32C10.5333 28.08 10.56 27.96 10.64 27.96C10.8267 28.04 11.2133 28.08 11.8 28.08C12.4133 28.08 12.92 27.76 13.32 27.12C13.7467 26.48 13.96 25.7867 13.96 25.04C13.96 24.2667 13.8933 23.64 13.76 23.16C13.6267 22.6533 13.4267 22.2267 13.16 21.88C12.5467 21.0533 11.84 20.64 11.04 20.64C10.72 20.64 10.4267 20.6533 10.16 20.68C9.92 20.7067 9.77333 20.8 9.72 20.96C9.61333 21.1733 9.56 21.7067 9.56 22.56V33.16C9.56 33.7467 9.56 34.24 9.56 34.64C9.58667 35.04 9.64 35.3333 9.72 35.52C9.8 35.68 9.90667 35.8 10.04 35.88C10.2 35.9333 10.36 35.9867 10.52 36.04C10.8133 36.0933 11.1333 36.12 11.48 36.12C11.5333 36.2267 11.56 36.4 11.56 36.64C11.56 36.88 11.5333 37.04 11.48 37.12ZM24.4473 35.36C24.794 35.36 25.0607 35.2933 25.2473 35.16C25.4607 35 25.5673 34.88 25.5673 34.8V31.12C25.274 31.2533 24.9673 31.3867 24.6473 31.52C24.354 31.6267 24.0473 31.7867 23.7273 32C23.1407 32.4 22.8473 32.9333 22.8473 33.6C22.874 34.2667 23.0607 34.7333 23.4073 35C23.754 35.24 24.1007 35.36 24.4473 35.36ZM30.3673 34.96C30.5007 35.04 30.5673 35.16 30.5673 35.32C30.5673 35.48 30.5273 35.64 30.4473 35.8C30.2873 35.96 30.0073 36.1733 29.6073 36.44C28.8873 36.92 28.2873 37.16 27.8073 37.16C27.3273 37.16 26.8873 37.0267 26.4873 36.76C26.114 36.4667 25.8607 36.16 25.7273 35.84C25.354 36.2133 24.8207 36.5333 24.1273 36.8C23.4607 37.0667 22.9407 37.2 22.5673 37.2C22.194 37.2 21.794 37.1067 21.3673 36.92C20.9407 36.7333 20.5807 36.4933 20.2873 36.2C19.6207 35.5333 19.2873 34.8667 19.2873 34.2C19.2873 33.5333 19.4207 33.0133 19.6873 32.64C19.9807 32.24 20.274 32 20.5673 31.92C20.8873 31.8133 21.2473 31.68 21.6473 31.52C22.074 31.36 22.5273 31.1867 23.0073 31C23.6207 30.7867 24.474 30.4667 25.5673 30.04V28.8C25.5673 28.1333 25.4207 27.5333 25.1273 27C24.834 26.44 24.4473 26.16 23.9673 26.16C23.4873 26.16 23.1407 26.3733 22.9273 26.8C22.7407 27.2267 22.6073 27.6667 22.5273 28.12C22.314 29.0533 21.794 29.52 20.9673 29.52C20.6207 29.52 20.3007 29.4133 20.0073 29.2C19.7407 28.96 19.6073 28.7067 19.6073 28.44C19.6073 28.0667 19.7273 27.64 19.9673 27.16C20.2607 26.8667 20.7407 26.5467 21.4073 26.2C22.7673 25.5067 23.9807 25.16 25.0473 25.16C26.1407 25.16 27.0607 25.5333 27.8073 26.28C28.5807 27.0267 28.9673 28 28.9673 29.2V34.12C28.9673 34.4933 29.034 34.7733 29.1673 34.96C29.3007 35.12 29.4473 35.2 29.6073 35.2C29.794 35.2 29.954 35.16 30.0873 35.08L30.3673 34.96ZM35.0163 36.92C33.9229 36.92 32.7096 36.9867 31.3763 37.12C31.3229 37.04 31.2962 36.88 31.2962 36.64C31.2962 36.4 31.3229 36.2267 31.3763 36.12C31.9363 36.12 32.3496 36.0667 32.6162 35.96C32.8829 35.8267 33.0429 35.72 33.0962 35.64C33.2296 35.32 33.2962 34.4933 33.2962 33.16V29.72C33.2962 29.5067 33.2696 29.1867 33.2162 28.76C33.1629 28.3333 33.1096 28.0667 33.0562 27.96C32.8696 27.6133 32.3096 27.44 31.3763 27.44C31.3229 27.4133 31.2962 27.28 31.2962 27.04C31.3229 26.7733 31.3629 26.64 31.4163 26.64C32.4296 26.56 33.4162 26.3733 34.3762 26.08C35.3362 25.76 36.0696 25.48 36.5763 25.24C36.6562 25.24 36.7496 25.3067 36.8562 25.44C36.9629 25.5467 37.0029 25.6267 36.9763 25.68C36.9763 25.7333 36.9629 25.84 36.9362 26C36.9362 26.1333 36.9096 26.3067 36.8562 26.52C36.7229 27.0533 36.6963 27.32 36.7762 27.32C36.8029 27.32 36.8296 27.3067 36.8562 27.28C36.8829 27.2533 36.9229 27.2267 36.9763 27.2C37.3496 26.7733 37.8029 26.4 38.3362 26.08C39.2696 25.52 40.0696 25.24 40.7362 25.24C41.4296 25.24 42.0029 25.3733 42.4562 25.64C42.9362 25.88 43.3096 26.2533 43.5762 26.76C44.0296 27.6667 44.2562 29.2267 44.2562 31.44V33.16C44.2562 34.4933 44.2962 35.2667 44.3762 35.48C44.4562 35.6667 44.5629 35.8 44.6962 35.88C44.8562 35.9333 45.0296 35.9867 45.2162 36.04C45.5363 36.0933 45.8429 36.12 46.1362 36.12C46.2162 36.2267 46.2429 36.4 46.2163 36.64C46.2163 36.88 46.1896 37.04 46.1362 37.12C44.8829 36.9867 43.6829 36.92 42.5362 36.92C41.6562 36.92 40.5496 36.9867 39.2163 37.12C39.1629 37.04 39.1362 36.88 39.1362 36.64C39.1362 36.4 39.1629 36.2267 39.2163 36.12C39.4029 36.12 39.6696 36.0933 40.0163 36.04C40.3629 35.96 40.5763 35.8 40.6563 35.56C40.7629 35.2667 40.8163 34.4667 40.8163 33.16V31.08C40.8163 28.6 40.2296 27.36 39.0563 27.36C38.5496 27.36 38.1096 27.48 37.7363 27.72C37.0696 28.2 36.7363 28.5733 36.7363 28.84V33.16C36.7363 34.4933 36.7763 35.2667 36.8562 35.48C36.9363 35.6667 37.0429 35.8 37.1762 35.88C37.3096 35.9333 37.4562 35.9867 37.6162 36.04C37.8829 36.0933 38.1629 36.12 38.4562 36.12C38.5096 36.2267 38.5363 36.4 38.5363 36.64C38.5363 36.88 38.5096 37.04 38.4562 37.12C37.1229 36.9867 35.9762 36.92 35.0163 36.92ZM57.2484 27.32C56.5284 27.2667 56.075 27.2267 55.8884 27.2C55.7017 27.1733 55.6084 27.1867 55.6084 27.24C55.9817 27.8 56.1684 28.3867 56.1684 29C56.1684 29.6133 56.0484 30.16 55.8084 30.64C55.5684 31.12 55.2217 31.5333 54.7684 31.88C53.8084 32.68 52.675 33.08 51.3684 33.08C50.8617 33.08 50.4084 33.04 50.0084 32.96C49.875 33.0933 49.7284 33.2267 49.5684 33.36C49.435 33.4933 49.3684 33.6533 49.3684 33.84C49.3684 34 49.5017 34.1467 49.7684 34.28C50.035 34.3867 50.3684 34.44 50.7684 34.44C51.195 34.44 51.7417 34.44 52.4084 34.44C53.1017 34.4133 53.715 34.4267 54.2484 34.48C54.7817 34.5067 55.2617 34.64 55.6884 34.88C56.1417 35.0933 56.515 35.3467 56.8084 35.64C57.3684 36.2 57.6484 36.8267 57.6484 37.52C57.6484 38.2133 57.4484 38.8933 57.0484 39.56C56.6484 40.2267 56.115 40.7867 55.4484 41.24C54.0084 42.2533 52.3817 42.76 50.5684 42.76C49.2617 42.76 48.195 42.48 47.3684 41.92C46.5684 41.36 46.1684 40.6267 46.1684 39.72C46.1684 39.1867 46.4084 38.68 46.8884 38.2C47.395 37.7467 47.9017 37.4 48.4084 37.16C47.955 37.0267 47.5684 36.7067 47.2484 36.2C46.955 35.6667 46.8084 35.12 46.8084 34.56C46.8084 34.1333 47.5417 33.4933 49.0084 32.64C48.235 32.3467 47.6217 31.9067 47.1684 31.32C46.7417 30.7067 46.5284 30.0667 46.5284 29.4C46.5284 28.7333 46.6484 28.1733 46.8884 27.72C47.155 27.24 47.5017 26.8133 47.9284 26.44C48.835 25.6933 49.9684 25.32 51.3284 25.32C52.5284 25.32 53.4617 25.5333 54.1284 25.96C54.1817 26.0133 54.235 26.04 54.2884 26.04L57.6084 25.72C57.795 25.8267 57.8884 25.9333 57.8884 26.04C57.8884 26.12 57.8084 26.3333 57.6484 26.68C57.515 27.0267 57.3817 27.24 57.2484 27.32ZM49.4884 37.36C49.195 37.7333 49.0484 38.12 49.0484 38.52C49.0484 39.4 49.3417 40.08 49.9284 40.56C50.515 41.04 51.195 41.28 51.9684 41.28C52.7684 41.28 53.3684 41.2 53.7684 41.04C54.1684 40.9067 54.4884 40.7333 54.7284 40.52C55.1284 40.1733 55.3284 39.7067 55.3284 39.12C55.3284 38.5333 55.0484 38.0933 54.4884 37.8C53.9284 37.5067 53.2217 37.36 52.3684 37.36H49.4884ZM51.2084 26.28C50.355 26.28 49.875 26.84 49.7684 27.96C49.7417 28.28 49.7284 28.6133 49.7284 28.96C49.7284 29.28 49.755 29.64 49.8084 30.04C49.8884 30.4133 49.995 30.76 50.1284 31.08C50.475 31.7733 50.9684 32.12 51.6084 32.12C52.4617 32.12 52.9017 31.5333 52.9284 30.36C52.955 30.0667 52.9684 29.76 52.9684 29.44C52.9684 29.12 52.9417 28.7733 52.8884 28.4C52.835 28 52.7417 27.64 52.6084 27.32C52.2884 26.6267 51.8217 26.28 51.2084 26.28ZM64.086 35.36C64.4327 35.36 64.6993 35.2933 64.886 35.16C65.0993 35 65.206 34.88 65.206 34.8V31.12C64.9127 31.2533 64.606 31.3867 64.286 31.52C63.9927 31.6267 63.686 31.7867 63.366 32C62.7793 32.4 62.486 32.9333 62.486 33.6C62.5127 34.2667 62.6993 34.7333 63.046 35C63.3927 35.24 63.7393 35.36 64.086 35.36ZM70.006 34.96C70.1393 35.04 70.206 35.16 70.206 35.32C70.206 35.48 70.166 35.64 70.086 35.8C69.926 35.96 69.646 36.1733 69.246 36.44C68.526 36.92 67.926 37.16 67.446 37.16C66.966 37.16 66.526 37.0267 66.126 36.76C65.7527 36.4667 65.4993 36.16 65.366 35.84C64.9927 36.2133 64.4593 36.5333 63.766 36.8C63.0993 37.0667 62.5793 37.2 62.206 37.2C61.8327 37.2 61.4327 37.1067 61.006 36.92C60.5793 36.7333 60.2193 36.4933 59.926 36.2C59.2593 35.5333 58.926 34.8667 58.926 34.2C58.926 33.5333 59.0593 33.0133 59.326 32.64C59.6193 32.24 59.9127 32 60.206 31.92C60.526 31.8133 60.886 31.68 61.286 31.52C61.7127 31.36 62.166 31.1867 62.646 31C63.2593 30.7867 64.1127 30.4667 65.206 30.04V28.8C65.206 28.1333 65.0593 27.5333 64.766 27C64.4727 26.44 64.086 26.16 63.606 26.16C63.126 26.16 62.7793 26.3733 62.566 26.8C62.3793 27.2267 62.246 27.6667 62.166 28.12C61.9527 29.0533 61.4327 29.52 60.606 29.52C60.2593 29.52 59.9393 29.4133 59.646 29.2C59.3793 28.96 59.246 28.7067 59.246 28.44C59.246 28.0667 59.366 27.64 59.606 27.16C59.8993 26.8667 60.3793 26.5467 61.046 26.2C62.406 25.5067 63.6193 25.16 64.686 25.16C65.7793 25.16 66.6993 25.5333 67.446 26.28C68.2193 27.0267 68.606 28 68.606 29.2V34.12C68.606 34.4933 68.6727 34.7733 68.806 34.96C68.9393 35.12 69.086 35.2 69.246 35.2C69.4327 35.2 69.5927 35.16 69.726 35.08L70.006 34.96ZM74.6549 36.92C73.5616 36.92 72.3483 36.9867 71.0149 37.12C70.9616 37.04 70.9349 36.88 70.9349 36.64C70.9349 36.4 70.9616 36.2267 71.0149 36.12C71.5749 36.12 71.9883 36.0667 72.2549 35.96C72.5216 35.8267 72.6816 35.72 72.7349 35.64C72.8683 35.32 72.9349 34.4933 72.9349 33.16V29.72C72.9349 29.5067 72.9083 29.1867 72.8549 28.76C72.8016 28.3333 72.7483 28.0667 72.6949 27.96C72.5083 27.6133 71.9483 27.44 71.0149 27.44C70.9616 27.4133 70.9349 27.28 70.9349 27.04C70.9616 26.7733 71.0016 26.64 71.0549 26.64C72.0683 26.56 73.0549 26.3733 74.0149 26.08C74.9749 25.76 75.7083 25.48 76.2149 25.24C76.2949 25.24 76.3883 25.3067 76.4949 25.44C76.6016 25.5467 76.6416 25.6267 76.6149 25.68C76.6149 25.7333 76.6016 25.84 76.5749 26C76.5749 26.1333 76.5483 26.3067 76.4949 26.52C76.3616 27.0533 76.3349 27.32 76.4149 27.32C76.4416 27.32 76.4683 27.3067 76.4949 27.28C76.5216 27.2533 76.5616 27.2267 76.6149 27.2C76.9883 26.7733 77.4416 26.4 77.9749 26.08C78.9083 25.52 79.7083 25.24 80.3749 25.24C81.0683 25.24 81.6416 25.3733 82.0949 25.64C82.5749 25.88 82.9483 26.2533 83.2149 26.76C83.6683 27.6667 83.8949 29.2267 83.8949 31.44V33.16C83.8949 34.4933 83.9349 35.2667 84.0149 35.48C84.0949 35.6667 84.2016 35.8 84.3349 35.88C84.4949 35.9333 84.6683 35.9867 84.8549 36.04C85.1749 36.0933 85.4816 36.12 85.7749 36.12C85.8549 36.2267 85.8816 36.4 85.8549 36.64C85.8549 36.88 85.8283 37.04 85.7749 37.12C84.5216 36.9867 83.3216 36.92 82.1749 36.92C81.2949 36.92 80.1883 36.9867 78.8549 37.12C78.8016 37.04 78.7749 36.88 78.7749 36.64C78.7749 36.4 78.8016 36.2267 78.8549 36.12C79.0416 36.12 79.3083 36.0933 79.6549 36.04C80.0016 35.96 80.2149 35.8 80.2949 35.56C80.4016 35.2667 80.4549 34.4667 80.4549 33.16V31.08C80.4549 28.6 79.8683 27.36 78.6949 27.36C78.1883 27.36 77.7483 27.48 77.3749 27.72C76.7083 28.2 76.3749 28.5733 76.3749 28.84V33.16C76.3749 34.4933 76.4149 35.2667 76.4949 35.48C76.5749 35.6667 76.6816 35.8 76.8149 35.88C76.9483 35.9333 77.0949 35.9867 77.2549 36.04C77.5216 36.0933 77.8016 36.12 78.0949 36.12C78.1483 36.2267 78.1749 36.4 78.1749 36.64C78.1749 36.88 78.1483 37.04 78.0949 37.12C76.7616 36.9867 75.6149 36.92 74.6549 36.92Z" fill="#3CB815"/>
<path d="M86.167 19.52C87.5004 19.6533 88.767 19.72 89.967 19.72C91.1137 19.72 92.3537 19.6533 93.687 19.52C93.7404 19.6 93.767 19.76 93.767 20C93.767 20.24 93.7404 20.4133 93.687 20.52C93.1804 20.52 92.7804 20.5733 92.487 20.68C92.1937 20.7867 92.0337 20.88 92.007 20.96C91.8737 21.2533 91.7937 21.6 91.767 22C91.767 22.4 91.767 22.88 91.767 23.44V28.12C93.1004 27.0533 93.9937 26.28 94.447 25.8L95.607 24.68C96.407 23.8533 97.1937 22.9467 97.967 21.96C98.127 21.7467 98.207 21.4533 98.207 21.08C98.207 20.68 97.7137 20.48 96.727 20.48C96.567 20.16 96.5537 19.84 96.687 19.52L100.127 19.72C101.06 19.72 102.154 19.6533 103.407 19.52C103.46 19.6267 103.474 19.7867 103.447 20C103.447 20.2133 103.407 20.36 103.327 20.44C102.767 20.44 102.194 20.5733 101.607 20.84C101.02 21.1067 100.607 21.36 100.367 21.6L95.407 26.72C95.2737 26.88 95.247 27.0267 95.327 27.16L100.087 33.56C100.914 34.6267 101.847 35.36 102.887 35.76C103.527 36 104.047 36.12 104.447 36.12C104.5 36.2267 104.514 36.4133 104.487 36.68C104.487 36.92 104.474 37.0667 104.447 37.12C103.7 37.1733 102.687 37.2 101.407 37.2C100.127 37.2 99.1404 36.9867 98.447 36.56C97.7804 36.1333 97.287 35.6933 96.967 35.24L92.327 29.04C92.247 28.96 92.1537 28.92 92.047 28.92C91.9404 28.92 91.847 28.9733 91.767 29.08V33.16C91.767 33.7467 91.767 34.24 91.767 34.64C91.7937 35.04 91.847 35.3333 91.927 35.52C92.007 35.68 92.1137 35.8 92.247 35.88C92.407 35.9333 92.567 35.9867 92.727 36.04C93.0204 36.0933 93.3404 36.12 93.687 36.12C93.7404 36.2267 93.767 36.4 93.767 36.64C93.767 36.88 93.7404 37.04 93.687 37.12C91.1804 36.88 88.6737 36.88 86.167 37.12C86.1137 37.04 86.087 36.88 86.087 36.64C86.087 36.4 86.1137 36.2267 86.167 36.12C86.727 36.12 87.1404 36.0667 87.407 35.96C87.6737 35.8267 87.8337 35.72 87.887 35.64C88.0204 35.32 88.087 34.4933 88.087 33.16V23.44C88.087 22.16 88.0204 21.3333 87.887 20.96C87.7004 20.6667 87.127 20.52 86.167 20.52C86.1137 20.4133 86.087 20.24 86.087 20C86.087 19.76 86.1137 19.6 86.167 19.52ZM109.193 29.56C109.246 29.56 109.42 29.56 109.713 29.56C110.033 29.5333 110.38 29.5067 110.753 29.48C111.606 29.4533 112.22 29.4133 112.593 29.36C112.833 29.3333 112.953 29.1867 112.953 28.92C112.953 28.6267 112.926 28.32 112.873 28C112.82 27.68 112.726 27.4 112.593 27.16C112.3 26.5733 111.913 26.28 111.433 26.28C110.98 26.28 110.62 26.4133 110.353 26.68C110.086 26.92 109.86 27.2133 109.673 27.56C109.353 28.2533 109.193 28.92 109.193 29.56ZM115.513 30.28C113.913 30.4133 111.806 30.52 109.193 30.6C109.193 32.2267 109.646 33.4267 110.553 34.2C111.246 34.76 111.993 35.04 112.793 35.04C113.62 35.04 114.26 34.8933 114.713 34.6C115.166 34.3067 115.54 34.0133 115.833 33.72C116.046 33.7733 116.153 33.92 116.153 34.16C116.153 34.4 116.1 34.6 115.993 34.76C115.913 34.8933 115.74 35.1067 115.473 35.4C115.206 35.6667 114.873 35.9333 114.473 36.2C113.46 36.8933 112.486 37.24 111.553 37.24C110.62 37.24 109.82 37.12 109.153 36.88C108.486 36.6133 107.9 36.24 107.393 35.76C106.3 34.72 105.753 33.3733 105.753 31.72C105.753 30.0133 106.34 28.52 107.513 27.24C108.766 25.88 110.126 25.2 111.593 25.2C113.166 25.2 114.366 25.6667 115.193 26.6C115.886 27.3467 116.233 28.2133 116.233 29.2C116.233 29.4933 116.166 29.7467 116.033 29.96C115.9 30.1733 115.726 30.28 115.513 30.28ZM116.517 26.6C116.731 26.3067 117.011 26.0133 117.357 25.72H118.517V24.32C119.024 23.8667 119.504 23.3867 119.957 22.88C120.437 22.3733 120.877 21.92 121.278 21.52C121.438 21.4133 121.584 21.3733 121.717 21.4C121.851 21.4 121.931 21.44 121.958 21.52V25.72H124.958C125.064 25.72 125.118 25.8533 125.118 26.12C125.118 26.36 124.918 26.64 124.517 26.96H121.958V33.48C121.958 34.8133 122.437 35.48 123.397 35.48C123.691 35.48 123.984 35.4 124.277 35.24C124.571 35.0533 124.744 34.9333 124.798 34.88C124.904 34.9867 124.958 35.08 124.958 35.16C124.958 35.4 124.904 35.5733 124.798 35.68C124.718 35.7867 124.584 35.92 124.397 36.08C124.238 36.24 124.038 36.4 123.797 36.56C123.104 36.9867 122.518 37.2 122.038 37.2C121.584 37.2 121.144 37.1333 120.718 37C120.317 36.8933 119.957 36.68 119.638 36.36C118.891 35.6933 118.517 34.68 118.517 33.32V26.96H116.638C116.558 26.9067 116.517 26.7867 116.517 26.6ZM130.883 35.36C131.23 35.36 131.496 35.2933 131.683 35.16C131.896 35 132.003 34.88 132.003 34.8V31.12C131.71 31.2533 131.403 31.3867 131.083 31.52C130.79 31.6267 130.483 31.7867 130.163 32C129.576 32.4 129.283 32.9333 129.283 33.6C129.31 34.2667 129.496 34.7333 129.843 35C130.19 35.24 130.536 35.36 130.883 35.36ZM136.803 34.96C136.936 35.04 137.003 35.16 137.003 35.32C137.003 35.48 136.963 35.64 136.883 35.8C136.723 35.96 136.443 36.1733 136.043 36.44C135.323 36.92 134.723 37.16 134.243 37.16C133.763 37.16 133.323 37.0267 132.923 36.76C132.55 36.4667 132.296 36.16 132.163 35.84C131.79 36.2133 131.256 36.5333 130.563 36.8C129.896 37.0667 129.376 37.2 129.003 37.2C128.63 37.2 128.23 37.1067 127.803 36.92C127.376 36.7333 127.016 36.4933 126.723 36.2C126.056 35.5333 125.723 34.8667 125.723 34.2C125.723 33.5333 125.856 33.0133 126.123 32.64C126.416 32.24 126.71 32 127.003 31.92C127.323 31.8133 127.683 31.68 128.083 31.52C128.51 31.36 128.963 31.1867 129.443 31C130.056 30.7867 130.91 30.4667 132.003 30.04V28.8C132.003 28.1333 131.856 27.5333 131.563 27C131.27 26.44 130.883 26.16 130.403 26.16C129.923 26.16 129.576 26.3733 129.363 26.8C129.176 27.2267 129.043 27.6667 128.963 28.12C128.75 29.0533 128.23 29.52 127.403 29.52C127.056 29.52 126.736 29.4133 126.443 29.2C126.176 28.96 126.043 28.7067 126.043 28.44C126.043 28.0667 126.163 27.64 126.403 27.16C126.696 26.8667 127.176 26.5467 127.843 26.2C129.203 25.5067 130.416 25.16 131.483 25.16C132.576 25.16 133.496 25.5333 134.243 26.28C135.016 27.0267 135.403 28 135.403 29.2V34.12C135.403 34.4933 135.47 34.7733 135.603 34.96C135.736 35.12 135.883 35.2 136.043 35.2C136.23 35.2 136.39 35.16 136.523 35.08L136.803 34.96ZM140.972 42.56C139.825 42.56 138.625 42.6267 137.372 42.76C137.318 42.68 137.278 42.52 137.252 42.28C137.252 42.04 137.292 41.8667 137.372 41.76C137.878 41.76 138.278 41.7067 138.572 41.6C138.865 41.4933 139.025 41.4 139.052 41.32C139.185 40.9467 139.252 40.12 139.252 38.84V29.72C139.252 29.5067 139.225 29.1867 139.172 28.76C139.118 28.3333 139.065 28.0667 139.012 27.96C138.878 27.6933 138.425 27.5333 137.652 27.48C137.492 27.4533 137.385 27.44 137.332 27.44C137.305 27.4133 137.292 27.28 137.292 27.04C137.292 26.7733 137.318 26.64 137.372 26.64C138.385 26.56 139.372 26.3733 140.332 26.08C141.292 25.76 142.025 25.48 142.532 25.24C142.638 25.2667 142.732 25.3333 142.812 25.44C142.918 25.5467 142.958 25.64 142.932 25.72C142.932 25.7733 142.892 25.88 142.812 26.04C142.758 26.1733 142.732 26.32 142.732 26.48C142.732 26.6133 142.745 26.7067 142.772 26.76C142.798 26.7867 142.918 26.68 143.132 26.44C143.345 26.2 143.705 25.9333 144.212 25.64C144.718 25.32 145.278 25.16 145.892 25.16C146.505 25.16 147.118 25.32 147.732 25.64C148.372 25.96 148.918 26.3867 149.372 26.92C150.305 27.9867 150.772 29.2933 150.772 30.84C150.772 32.7333 150.052 34.3067 148.612 35.56C147.358 36.6533 145.918 37.2 144.292 37.2C143.918 37.2 143.585 37.16 143.292 37.08C142.998 37 142.825 36.96 142.772 36.96C142.718 36.96 142.692 37.1067 142.692 37.4V38.84C142.692 40.12 142.758 40.9467 142.892 41.32C142.998 41.6133 143.558 41.76 144.572 41.76C144.652 41.8667 144.678 42.04 144.652 42.28C144.652 42.52 144.625 42.68 144.572 42.76C143.292 42.6267 142.092 42.56 140.972 42.56ZM142.692 34.48C142.692 35.0133 142.878 35.4133 143.252 35.68C143.625 35.92 143.972 36.04 144.292 36.04C144.638 36.04 144.958 35.96 145.252 35.8C145.545 35.64 145.812 35.3867 146.052 35.04C146.665 34.2133 146.972 33.12 146.972 31.76C146.972 30.4 146.772 29.2933 146.372 28.44C145.972 27.56 145.225 27.12 144.132 27.12C143.652 27.12 143.292 27.2267 143.052 27.44C142.812 27.6533 142.692 27.7867 142.692 27.84V34.48ZM156.781 35.36C157.128 35.36 157.395 35.2933 157.581 35.16C157.795 35 157.901 34.88 157.901 34.8V31.12C157.608 31.2533 157.301 31.3867 156.981 31.52C156.688 31.6267 156.381 31.7867 156.061 32C155.475 32.4 155.181 32.9333 155.181 33.6C155.208 34.2667 155.395 34.7333 155.741 35C156.088 35.24 156.435 35.36 156.781 35.36ZM162.701 34.96C162.835 35.04 162.901 35.16 162.901 35.32C162.901 35.48 162.861 35.64 162.781 35.8C162.621 35.96 162.341 36.1733 161.941 36.44C161.221 36.92 160.621 37.16 160.141 37.16C159.661 37.16 159.221 37.0267 158.821 36.76C158.448 36.4667 158.195 36.16 158.061 35.84C157.688 36.2133 157.155 36.5333 156.461 36.8C155.795 37.0667 155.275 37.2 154.901 37.2C154.528 37.2 154.128 37.1067 153.701 36.92C153.275 36.7333 152.915 36.4933 152.621 36.2C151.955 35.5333 151.621 34.8667 151.621 34.2C151.621 33.5333 151.755 33.0133 152.021 32.64C152.315 32.24 152.608 32 152.901 31.92C153.221 31.8133 153.581 31.68 153.981 31.52C154.408 31.36 154.861 31.1867 155.341 31C155.955 30.7867 156.808 30.4667 157.901 30.04V28.8C157.901 28.1333 157.755 27.5333 157.461 27C157.168 26.44 156.781 26.16 156.301 26.16C155.821 26.16 155.475 26.3733 155.261 26.8C155.075 27.2267 154.941 27.6667 154.861 28.12C154.648 29.0533 154.128 29.52 153.301 29.52C152.955 29.52 152.635 29.4133 152.341 29.2C152.075 28.96 151.941 28.7067 151.941 28.44C151.941 28.0667 152.061 27.64 152.301 27.16C152.595 26.8667 153.075 26.5467 153.741 26.2C155.101 25.5067 156.315 25.16 157.381 25.16C158.475 25.16 159.395 25.5333 160.141 26.28C160.915 27.0267 161.301 28 161.301 29.2V34.12C161.301 34.4933 161.368 34.7733 161.501 34.96C161.635 35.12 161.781 35.2 161.941 35.2C162.128 35.2 162.288 35.16 162.421 35.08L162.701 34.96ZM167.35 36.92C166.257 36.92 165.044 36.9867 163.71 37.12C163.657 37.04 163.63 36.88 163.63 36.64C163.63 36.4 163.657 36.2267 163.71 36.12C164.27 36.12 164.684 36.0667 164.95 35.96C165.217 35.8267 165.377 35.72 165.43 35.64C165.564 35.32 165.63 34.4933 165.63 33.16V29.72C165.63 29.5067 165.604 29.1867 165.55 28.76C165.497 28.3333 165.444 28.0667 165.39 27.96C165.204 27.6133 164.644 27.44 163.71 27.44C163.657 27.4133 163.63 27.28 163.63 27.04C163.657 26.7733 163.697 26.64 163.75 26.64C164.764 26.56 165.75 26.3733 166.71 26.08C167.67 25.76 168.404 25.48 168.91 25.24C168.99 25.24 169.084 25.3067 169.19 25.44C169.297 25.5467 169.337 25.6267 169.31 25.68C169.31 25.7333 169.297 25.84 169.27 26C169.27 26.1333 169.244 26.3067 169.19 26.52C169.057 27.0533 169.03 27.32 169.11 27.32C169.137 27.32 169.164 27.3067 169.19 27.28C169.217 27.2533 169.257 27.2267 169.31 27.2C169.684 26.7733 170.137 26.4 170.67 26.08C171.604 25.52 172.404 25.24 173.07 25.24C173.764 25.24 174.337 25.3733 174.79 25.64C175.27 25.88 175.644 26.2533 175.91 26.76C176.364 27.6667 176.59 29.2267 176.59 31.44V33.16C176.59 34.4933 176.63 35.2667 176.71 35.48C176.79 35.6667 176.897 35.8 177.03 35.88C177.19 35.9333 177.364 35.9867 177.55 36.04C177.87 36.0933 178.177 36.12 178.47 36.12C178.55 36.2267 178.577 36.4 178.55 36.64C178.55 36.88 178.524 37.04 178.47 37.12C177.217 36.9867 176.017 36.92 174.87 36.92C173.99 36.92 172.884 36.9867 171.55 37.12C171.497 37.04 171.47 36.88 171.47 36.64C171.47 36.4 171.497 36.2267 171.55 36.12C171.737 36.12 172.004 36.0933 172.35 36.04C172.697 35.96 172.91 35.8 172.99 35.56C173.097 35.2667 173.15 34.4667 173.15 33.16V31.08C173.15 28.6 172.564 27.36 171.39 27.36C170.884 27.36 170.444 27.48 170.07 27.72C169.404 28.2 169.07 28.5733 169.07 28.84V33.16C169.07 34.4933 169.11 35.2667 169.19 35.48C169.27 35.6667 169.377 35.8 169.51 35.88C169.644 35.9333 169.79 35.9867 169.95 36.04C170.217 36.0933 170.497 36.12 170.79 36.12C170.844 36.2267 170.87 36.4 170.87 36.64C170.87 36.88 170.844 37.04 170.79 37.12C169.457 36.9867 168.31 36.92 167.35 36.92ZM189.582 27.32C188.862 27.2667 188.409 27.2267 188.222 27.2C188.036 27.1733 187.942 27.1867 187.942 27.24C188.316 27.8 188.502 28.3867 188.502 29C188.502 29.6133 188.382 30.16 188.142 30.64C187.902 31.12 187.556 31.5333 187.102 31.88C186.142 32.68 185.009 33.08 183.702 33.08C183.196 33.08 182.742 33.04 182.342 32.96C182.209 33.0933 182.062 33.2267 181.902 33.36C181.769 33.4933 181.702 33.6533 181.702 33.84C181.702 34 181.836 34.1467 182.102 34.28C182.369 34.3867 182.702 34.44 183.102 34.44C183.529 34.44 184.076 34.44 184.742 34.44C185.436 34.4133 186.049 34.4267 186.582 34.48C187.116 34.5067 187.596 34.64 188.022 34.88C188.476 35.0933 188.849 35.3467 189.142 35.64C189.702 36.2 189.982 36.8267 189.982 37.52C189.982 38.2133 189.782 38.8933 189.382 39.56C188.982 40.2267 188.449 40.7867 187.782 41.24C186.342 42.2533 184.716 42.76 182.902 42.76C181.596 42.76 180.529 42.48 179.702 41.92C178.902 41.36 178.502 40.6267 178.502 39.72C178.502 39.1867 178.742 38.68 179.222 38.2C179.729 37.7467 180.236 37.4 180.742 37.16C180.289 37.0267 179.902 36.7067 179.582 36.2C179.289 35.6667 179.142 35.12 179.142 34.56C179.142 34.1333 179.876 33.4933 181.342 32.64C180.569 32.3467 179.956 31.9067 179.502 31.32C179.076 30.7067 178.862 30.0667 178.862 29.4C178.862 28.7333 178.982 28.1733 179.222 27.72C179.489 27.24 179.836 26.8133 180.262 26.44C181.169 25.6933 182.302 25.32 183.662 25.32C184.862 25.32 185.796 25.5333 186.462 25.96C186.516 26.0133 186.569 26.04 186.622 26.04L189.942 25.72C190.129 25.8267 190.222 25.9333 190.222 26.04C190.222 26.12 190.142 26.3333 189.982 26.68C189.849 27.0267 189.716 27.24 189.582 27.32ZM181.822 37.36C181.529 37.7333 181.382 38.12 181.382 38.52C181.382 39.4 181.676 40.08 182.262 40.56C182.849 41.04 183.529 41.28 184.302 41.28C185.102 41.28 185.702 41.2 186.102 41.04C186.502 40.9067 186.822 40.7333 187.062 40.52C187.462 40.1733 187.662 39.7067 187.662 39.12C187.662 38.5333 187.382 38.0933 186.822 37.8C186.262 37.5067 185.556 37.36 184.702 37.36H181.822ZM183.542 26.28C182.689 26.28 182.209 26.84 182.102 27.96C182.076 28.28 182.062 28.6133 182.062 28.96C182.062 29.28 182.089 29.64 182.142 30.04C182.222 30.4133 182.329 30.76 182.462 31.08C182.809 31.7733 183.302 32.12 183.942 32.12C184.796 32.12 185.236 31.5333 185.262 30.36C185.289 30.0667 185.302 29.76 185.302 29.44C185.302 29.12 185.276 28.7733 185.222 28.4C185.169 28 185.076 27.64 184.942 27.32C184.622 26.6267 184.156 26.28 183.542 26.28Z" fill="#F65005"/>
</svg>
